<svg xmlns="http://www.w3.org/2000/svg" width="64" height="64" viewBox="0 0 64 64">
  <defs>
    <linearGradient id="g" x1="0" y1="0" x2="1" y2="1">
      <stop offset="0%" stop-color="#7c3aed"/>
      <stop offset="100%" stop-color="#4f46e5"/>
    </linearGradient>
  </defs>
  <rect width="64" height="64" rx="14" fill="url(#g)"/>
  <path d="M48 22c0 12-8.4 18-15.2 21.48a1.9 1.9 0 0 1-1.6 0C24.4 40 16 34 16 22v-6a2 2 0 0 1 2-2c4 0 9-2.4 12.5-5.44a2.34 2.34 0 0 1 3 0C37 11 42 14 46 14a2 2 0 0 1 2 2z"
        fill="none" stroke="#ffffff" stroke-width="3.5" stroke-linecap="round" stroke-linejoin="round"/>
</svg>
